<?xml version="1.0" standalone="no"?>
<!DOCTYPE svg PUBLIC "-//W3C//DTD SVG 20010904//EN"
 "http://www.w3.org/TR/2001/REC-SVG-20010904/DTD/svg10.dtd">
<svg version="1.0" xmlns="http://www.w3.org/2000/svg"
 width="1024.000000pt" height="1024.000000pt" viewBox="0 0 1024.000000 1024.000000"
 preserveAspectRatio="xMidYMid meet">

<g transform="translate(0.000000,1024.000000) scale(0.100000,-0.100000)"
fill="#000000" stroke="none">
<path d="M5330 9010 c-105 -10 -250 -43 -353 -81 -61 -23 -95 -29 -155 -29
-293 0 -643 -95 -951 -256 -260 -137 -488 -308 -721 -543 -257 -258 -419 -477
-564 -760 -141 -276 -213 -524 -286 -981 -38 -238 -37 -237 -319 -663 -297
-450 -360 -585 -348 -744 9 -126 73 -230 171 -280 63 -32 175 -52 288 -53 l88
0 -6 -557 c-6 -540 -6 -561 15 -658 29 -139 75 -230 165 -320 124 -125 286
-200 490 -225 168 -22 532 -3 722 36 29 5 32 4 38 -27 19 -98 28 -324 35 -859
6 -542 8 -598 24 -628 28 -51 72 -74 137 -70 49 4 72 14 192 86 354 213 714
360 1118 456 250 60 462 89 765 106 99 6 194 15 212 21 102 33 123 180 36 246
l-37 28 -195 -1 c-582 -2 -1301 -185 -1828 -464 l-113 -60 0 37 c0 288 -23
980 -36 1076 -9 65 -14 120 -12 122 1 1 50 20 108 40 226 81 400 180 534 306
79 74 123 136 126 179 5 62 -1 82 -38 121 -31 34 -46 42 -84 46 -69 8 -94 -2
-157 -61 -209 -198 -495 -333 -856 -405 -214 -43 -337 -54 -500 -48 -254 10
-404 75 -494 215 -67 105 -72 192 -51 970 10 344 9 400 -4 446 -31 106 -83
128 -306 133 -91 2 -178 9 -193 15 -71 27 -76 101 -16 215 23 43 125 200 228
348 230 331 282 412 322 501 40 87 74 221 94 371 86 621 292 1053 710 1482
202 207 368 343 572 468 156 96 347 186 436 207 26 6 25 4 -24 -56 -63 -78
-140 -234 -174 -353 -70 -243 -77 -379 -73 -1365 l3 -815 24 -70 c66 -198 192
-353 390 -483 47 -31 87 -57 88 -57 1 0 -10 -57 -24 -125 -23 -114 -25 -140
-20 -285 8 -226 52 -397 152 -592 121 -234 336 -457 581 -602 164 -97 439
-181 592 -181 l42 0 1 -112 c1 -179 8 -368 14 -435 23 -227 321 -468 745 -603
l85 -27 7 -84 c22 -262 191 -429 433 -429 173 0 316 86 389 236 112 229 30
487 -190 595 -56 28 -81 34 -153 37 -99 5 -188 -14 -259 -53 -60 -34 -89 -32
-233 15 -249 80 -449 209 -500 324 -20 47 -25 97 -34 382 l-5 161 83 22 c45
12 118 37 162 56 44 19 80 35 80 35 0 0 1 -51 3 -113 4 -124 22 -238 48 -292
24 -51 79 -92 154 -117 61 -20 82 -22 365 -20 165 1 444 4 620 8 l320 6 22
-45 c80 -164 286 -252 476 -202 79 21 131 49 189 103 62 57 96 115 120 201 59
215 -37 444 -224 531 -113 53 -201 60 -322 24 -115 -33 -218 -128 -257 -237
l-23 -64 -305 -7 c-169 -3 -432 -9 -587 -12 l-281 -7 -6 69 c-4 38 -10 127
-13 197 l-7 129 103 -7 c56 -4 211 -8 344 -9 194 0 256 3 317 17 104 24 185
57 260 107 100 67 408 387 501 518 14 21 17 22 57 7 70 -24 178 -29 249 -11
134 34 212 97 274 223 43 86 43 87 43 197 -1 91 -5 121 -23 166 -45 112 -130
197 -242 242 -72 28 -211 31 -287 5 -177 -61 -285 -211 -287 -402 -1 -38 3
-97 8 -131 l8 -60 -99 -125 c-117 -145 -263 -292 -353 -355 -121 -84 -318
-123 -545 -109 l-115 7 28 36 c112 144 224 410 253 598 12 82 12 82 45 87 93
15 260 114 347 206 130 136 188 273 222 521 6 44 8 46 75 78 138 66 237 174
289 315 23 64 26 86 25 202 0 114 -4 139 -27 204 -14 41 -42 101 -63 133 l-36
59 25 57 c62 138 83 330 53 477 -21 101 -97 258 -165 342 -48 59 -153 153
-171 153 -4 0 -11 24 -15 53 -53 400 -305 728 -651 847 -31 11 -65 20 -75 20
-10 0 -31 19 -48 43 -44 65 -161 170 -240 217 -211 125 -493 182 -754 151
l-105 -13 -53 36 c-30 19 -81 44 -114 54 -133 44 -376 68 -535 52z m275 -334
c33 -3 83 -12 112 -21 l52 -15 -29 -63 c-81 -179 -124 -459 -86 -552 42 -99
220 -101 260 -2 8 17 19 70 25 117 34 236 85 346 190 408 41 24 58 27 152 30
131 5 231 -18 366 -83 165 -80 233 -171 221 -295 -9 -90 -82 -139 -178 -120
-25 5 -66 9 -92 10 -41 0 -54 -5 -87 -36 -63 -56 -77 -133 -35 -192 48 -69
212 -92 345 -50 137 44 254 146 317 275 14 29 30 53 34 53 5 0 28 -10 51 -21
79 -40 176 -120 227 -187 57 -76 111 -203 118 -278 l4 -51 -158 -6 c-97 -3
-182 -12 -218 -22 -195 -53 -314 -193 -324 -383 -8 -146 43 -271 152 -370 137
-126 338 -122 377 7 22 75 -24 152 -120 201 -72 36 -98 61 -112 108 -22 74 38
136 161 168 87 22 278 15 367 -14 81 -26 152 -79 198 -147 54 -82 68 -128 69
-230 1 -78 -3 -98 -26 -147 -38 -81 -71 -99 -163 -91 -126 10 -247 -34 -280
-104 -54 -114 46 -225 176 -195 111 26 188 11 247 -49 49 -48 73 -114 73 -197
1 -79 -15 -133 -54 -183 -55 -72 -83 -81 -222 -74 -103 5 -125 3 -155 -12
-106 -55 -105 -189 2 -256 55 -34 56 -39 32 -154 -36 -174 -136 -290 -291
-337 -21 -7 -23 -4 -23 27 0 56 -28 187 -59 280 -60 177 -153 332 -287 476
l-76 81 34 39 c101 119 133 231 86 301 -28 43 -80 70 -131 70 -75 0 -124 -44
-184 -164 -19 -39 -37 -73 -39 -75 -2 -2 -19 6 -39 18 -50 29 -211 84 -320
109 -286 66 -605 53 -845 -33 -272 -99 -522 -305 -670 -555 -18 -30 -39 -65
-47 -78 l-14 -23 -62 51 c-109 91 -183 190 -226 305 -19 50 -21 76 -20 253 1
108 4 249 8 312 l6 115 122 7 c265 14 458 91 619 245 81 78 113 129 120 189 5
41 2 55 -18 84 -32 48 -82 72 -136 67 -54 -6 -93 -34 -164 -118 -95 -112 -227
-159 -443 -159 l-105 0 2 226 3 227 75 19 c212 55 336 139 504 343 45 54 121
95 177 95 20 0 58 -7 85 -15 101 -31 164 -13 199 55 20 38 19 76 -4 126 -39
85 -157 138 -306 137 -157 0 -246 -51 -375 -211 -96 -121 -207 -201 -327 -237
l-43 -13 0 28 c0 59 41 266 71 354 85 256 236 407 515 516 131 51 245 78 375
89 100 8 135 7 264 -3z m595 -2699 c379 -100 645 -353 754 -717 37 -125 48
-201 49 -330 2 -467 -285 -877 -722 -1034 -100 -36 -148 -46 -267 -56 -393
-31 -785 167 -1017 516 -101 152 -153 290 -178 474 -46 348 134 727 461 969
137 102 253 154 428 192 127 28 359 21 492 -14z m2421 -1020 c43 -29 59 -60
59 -120 0 -88 -52 -147 -130 -147 -111 0 -174 109 -125 214 35 74 128 99 196
53z m-114 -1538 c52 -50 67 -116 39 -182 -22 -52 -50 -70 -114 -75 -52 -4 -61
-1 -91 24 -37 31 -61 78 -61 120 0 40 44 109 82 128 45 23 111 16 145 -15z
m-1267 -1017 c100 -50 106 -186 10 -250 -29 -20 -44 -23 -89 -19 -47 3 -59 9
-87 39 -46 51 -54 112 -22 170 25 47 74 78 123 78 17 0 46 -8 65 -18z"/>
<path d="M5907 7519 c-87 -21 -137 -66 -144 -132 -7 -59 17 -108 66 -135 32
-18 55 -22 127 -22 106 0 152 -11 195 -47 89 -76 92 -252 4 -321 -53 -42 -96
-48 -201 -27 -77 15 -100 16 -133 6 -75 -22 -116 -103 -92 -182 22 -72 115
-117 261 -126 105 -7 179 8 269 53 346 173 325 721 -34 894 -92 44 -226 61
-318 39z"/>
<path d="M5789 5645 c-140 -26 -252 -82 -350 -173 -187 -173 -276 -423 -235
-660 50 -287 242 -509 516 -593 62 -20 97 -24 200 -23 140 0 215 16 317 66
121 59 257 197 284 287 11 35 9 45 -12 87 -29 58 -62 84 -117 91 -64 9 -121
-18 -189 -88 -37 -38 -82 -72 -123 -92 -60 -30 -71 -32 -170 -32 -86 1 -116 5
-162 24 -63 25 -156 103 -194 162 -83 132 -66 343 38 478 92 118 225 177 377
169 101 -6 171 -36 259 -112 59 -51 105 -68 154 -56 57 13 68 21 93 65 46 78
29 131 -75 229 -75 71 -192 135 -295 161 -87 23 -226 27 -316 10z"/>
</g>
</svg>
