<?xml version="1.0" standalone="no"?>
<!DOCTYPE svg PUBLIC "-//W3C//DTD SVG 20010904//EN"
 "http://www.w3.org/TR/2001/REC-SVG-20010904/DTD/svg10.dtd">
<svg version="1.0" xmlns="http://www.w3.org/2000/svg"
 width="1024.000000pt" height="1024.000000pt" viewBox="0 0 1024.000000 1024.000000"
 preserveAspectRatio="xMidYMid meet">

<g transform="translate(0.000000,1024.000000) scale(0.100000,-0.100000)"
fill="#000000" stroke="none">
<path d="M5875 9198 c-305 -22 -597 -174 -772 -401 -63 -82 -128 -209 -154
-302 -21 -79 -22 -88 -31 -1295 -11 -1507 -8 -1834 16 -1910 33 -102 77 -172
166 -260 95 -95 189 -149 308 -177 37 -8 73 -17 80 -19 7 -2 12 -21 12 -50 0
-115 67 -349 145 -504 140 -279 436 -540 708 -626 l58 -18 -7 -375 c-12 -715
19 -963 157 -1250 33 -68 58 -126 56 -128 -2 -2 -31 -8 -63 -13 -32 -5 -142
-24 -244 -40 -396 -65 -748 -146 -1560 -360 -444 -117 -615 -159 -621 -152 -3
4 -11 93 -18 197 -15 243 -47 566 -67 675 -19 102 -64 235 -104 307 -17 29
-30 56 -30 61 0 4 37 15 83 25 309 63 610 178 801 305 83 55 233 195 285 267
93 127 183 319 196 420 6 42 3 55 -17 85 -27 40 -89 67 -130 57 -50 -13 -84
-52 -103 -119 -92 -330 -376 -563 -870 -712 -418 -127 -1126 -246 -1386 -234
-149 7 -230 55 -275 163 -20 48 -18 125 7 246 16 76 20 124 16 178 -6 75 -7
77 -96 245 -31 59 -39 118 -25 174 6 22 8 22 199 22 183 0 194 1 226 23 41 27
59 60 59 107 0 47 -18 80 -59 107 -33 22 -41 23 -272 23 l-238 0 -20 26 c-26
34 -26 66 0 212 12 64 22 153 23 197 1 68 -3 86 -23 118 -44 71 -69 77 -331
77 l-231 0 -26 26 c-41 41 -29 78 95 296 349 616 462 831 513 983 28 80 30
171 15 565 -10 261 2 378 59 617 137 568 534 1107 1046 1419 332 203 778 334
1136 334 54 0 115 5 135 10 43 12 75 48 84 96 9 49 -2 82 -41 121 l-33 33
-105 0 c-541 0 -1136 -211 -1567 -557 -451 -361 -785 -875 -909 -1396 -51
-216 -56 -277 -56 -727 0 -417 0 -426 -22 -477 -45 -105 -153 -305 -418 -773
-220 -389 -210 -366 -210 -485 0 -92 2 -104 30 -154 34 -62 92 -116 161 -151
45 -23 64 -25 244 -31 107 -4 196 -7 198 -8 7 -3 -1 -60 -19 -138 -40 -165
-17 -286 73 -387 l39 -45 -12 -61 c-25 -128 0 -244 79 -370 46 -72 50 -119 22
-261 -17 -85 -21 -131 -17 -188 19 -233 165 -398 402 -452 135 -31 513 -9 866
51 64 11 126 20 139 20 51 0 126 -139 159 -290 34 -163 71 -564 71 -776 0 -83
-3 -99 -24 -133 -47 -74 -52 -134 -16 -200 18 -34 70 -61 118 -61 51 0 388 81
1042 250 841 217 1180 291 1580 345 297 39 332 50 365 115 29 56 20 91 -64
253 -133 256 -172 376 -190 594 -12 128 -15 912 -5 974 l6 36 96 6 c53 3 97 5
98 4 1 -1 4 -114 8 -252 4 -137 11 -270 17 -295 12 -54 64 -136 133 -208 57
-60 196 -186 240 -218 l29 -21 -18 -68 c-22 -89 -14 -155 31 -245 62 -123 171
-192 309 -198 102 -5 148 8 226 61 195 131 224 395 63 567 -25 27 -72 62 -103
77 -50 25 -67 28 -157 28 -86 0 -108 -4 -153 -25 l-52 -24 -153 154 -153 155
-6 105 c-4 58 -9 188 -13 290 l-6 185 51 22 50 21 200 -213 c233 -247 253
-261 359 -252 157 15 408 37 418 37 7 0 23 -24 38 -54 29 -60 103 -134 162
-164 190 -95 419 -12 512 186 23 49 27 70 27 153 0 88 -2 100 -34 162 -41 80
-110 148 -189 185 -51 24 -69 27 -162 27 -95 0 -110 -3 -158 -28 -75 -39 -124
-87 -161 -156 -37 -70 -14 -63 -271 -84 l-175 -14 -175 173 -174 173 89 86
c65 61 96 83 110 80 11 -2 146 -7 301 -11 316 -8 351 -3 426 51 34 25 55 52
80 102 l33 68 6 295 c3 162 6 296 7 296 10 9 50 16 128 24 l93 10 53 -53 c62
-62 122 -93 207 -108 166 -30 328 58 404 218 29 62 32 77 32 163 0 88 -3 101
-33 162 -61 124 -184 211 -317 225 -61 6 -159 -17 -218 -51 -94 -56 -180 -178
-193 -277 -7 -55 2 -50 -128 -68 -128 -18 -213 -68 -259 -155 -21 -39 -22 -57
-27 -339 -5 -281 -6 -299 -24 -313 -22 -16 -134 -18 -323 -7 l-112 6 33 66
c79 156 122 365 112 541 -3 58 -9 119 -12 136 -6 31 -5 32 98 84 56 28 132 73
168 98 87 61 202 173 256 249 86 120 153 295 154 402 0 36 6 51 35 82 160 177
172 510 25 704 l-49 65 25 97 c23 87 25 112 20 214 -7 160 -46 272 -148 423
-43 63 -144 168 -211 221 -37 29 -38 33 -47 115 -10 89 -37 186 -72 255 -76
151 -250 317 -393 375 -30 12 -55 27 -55 34 0 24 -64 144 -111 207 -141 190
-362 341 -607 416 -75 23 -108 26 -238 28 -122 2 -156 6 -177 19 -48 32 -218
86 -330 105 -134 24 -228 28 -362 19z m315 -254 c36 -8 89 -21 119 -30 l53
-15 -19 -22 c-62 -70 -93 -171 -93 -308 0 -116 12 -160 51 -193 52 -44 150
-29 181 27 8 13 13 61 13 122 1 88 4 106 27 151 52 100 120 137 253 136 202 0
399 -109 575 -314 l70 -83 -64 -30 c-161 -77 -274 -212 -252 -300 4 -15 20
-40 36 -56 25 -25 36 -29 86 -29 l57 0 66 69 c87 91 115 104 205 99 97 -4 171
-42 256 -128 115 -117 172 -269 150 -403 -20 -126 -107 -264 -209 -331 -84
-55 -93 -66 -99 -125 -4 -45 -1 -52 30 -86 57 -63 139 -59 242 13 56 38 148
152 192 235 l37 71 56 -61 c110 -120 170 -254 171 -378 0 -61 -20 -178 -32
-190 -2 -3 -28 4 -56 15 -29 11 -66 20 -83 20 -68 0 -119 -53 -119 -124 0 -74
30 -103 140 -130 160 -41 261 -170 247 -316 -8 -80 -22 -120 -67 -189 -38 -59
-83 -97 -125 -106 -11 -2 -32 -6 -48 -10 -15 -3 -42 -18 -60 -34 -27 -25 -32
-36 -32 -74 0 -56 19 -79 90 -108 l54 -22 -19 -49 c-54 -143 -195 -280 -389
-377 -34 -18 -64 -31 -65 -29 0 2 -16 34 -34 72 -47 97 -91 163 -168 251 l-66
76 57 56 c122 119 196 273 210 439 15 175 -49 374 -147 453 -52 42 -137 29
-174 -27 -28 -43 -21 -91 24 -167 50 -81 56 -112 49 -217 -7 -100 -55 -207
-146 -321 -59 -75 -63 -78 -84 -64 -112 72 -261 136 -377 161 l-76 17 4 92
c11 245 -110 430 -342 521 -85 34 -188 40 -225 14 -57 -40 -76 -110 -46 -167
16 -33 77 -61 131 -61 77 0 156 -56 200 -142 21 -41 24 -61 24 -146 l0 -99
-87 -6 c-98 -6 -237 -43 -328 -87 -193 -92 -400 -272 -528 -458 -54 -77 -134
-245 -148 -309 -14 -61 -18 -62 -108 -34 -164 51 -256 160 -268 318 -5 67 -3
78 26 137 49 100 105 138 266 181 129 34 284 110 357 175 104 93 179 220 219
371 20 75 21 91 11 127 -22 74 -118 106 -188 63 -26 -16 -37 -34 -59 -103 -52
-155 -104 -235 -200 -303 -78 -56 -126 -77 -234 -105 -46 -12 -107 -33 -135
-48 -28 -15 -54 -28 -59 -30 -4 -2 -7 231 -6 518 1 481 2 520 17 516 141 -41
319 -30 462 27 171 69 330 232 330 336 0 25 -9 43 -39 72 -34 35 -44 39 -88
39 -60 0 -83 -15 -128 -85 -90 -142 -283 -206 -470 -158 l-70 18 -3 185 c-5
268 19 350 134 465 149 149 363 197 511 115 110 -62 113 -63 156 -57 80 11
120 93 83 166 -20 37 -76 85 -134 115 -227 115 -521 69 -712 -112 -24 -23 -44
-42 -44 -42 -7 0 7 360 15 400 27 137 132 291 271 395 195 146 489 206 738
149z m718 -3215 c336 -77 631 -365 724 -708 30 -111 30 -334 0 -447 -38 -144
-97 -252 -207 -384 -75 -89 -171 -171 -270 -230 -118 -68 -311 -119 -404 -105
-87 13 -131 96 -78 149 16 16 45 27 91 35 179 31 331 106 445 219 125 124 200
276 221 446 41 327 -164 646 -492 764 -68 24 -85 26 -238 26 -152 0 -171 -2
-243 -26 -207 -70 -376 -230 -447 -427 -17 -46 -32 -116 -39 -179 -13 -118
-20 -136 -63 -158 -43 -22 -90 -11 -124 29 -26 31 -26 33 -21 147 3 79 12 137
27 185 113 357 439 641 785 684 94 12 232 3 333 -20z m-116 -490 c196 -41 362
-230 375 -428 11 -150 -36 -270 -143 -370 -107 -101 -205 -137 -342 -129 -182
12 -336 123 -409 297 -25 60 -28 77 -28 191 0 120 1 128 32 192 35 74 106 156
168 196 89 57 225 76 347 51z m2284 -55 c22 -10 43 -32 54 -55 53 -102 -10
-209 -122 -209 -39 0 -54 6 -83 31 -125 110 0 304 151 233z m-452 -1675 c36
-29 56 -70 56 -119 0 -53 -24 -93 -67 -114 -75 -36 -150 -7 -185 71 -17 39
-19 51 -9 82 13 42 26 60 61 84 35 24 110 22 144 -4z m-923 -934 c40 -21 69
-71 69 -120 0 -110 -129 -177 -210 -109 -61 52 -75 114 -40 172 40 65 118 89
181 57z"/>
<path d="M6853 7820 c-331 -60 -522 -372 -422 -695 54 -177 262 -360 422 -372
91 -7 145 46 134 130 -7 53 -37 82 -118 112 -82 32 -151 90 -187 159 -35 68
-38 186 -6 257 52 111 156 179 277 179 77 0 120 -15 180 -62 76 -60 174 -39
206 45 17 46 9 78 -34 125 -83 93 -295 150 -452 122z"/>
<path d="M6609 4985 c-93 -30 -158 -134 -146 -237 15 -127 107 -208 237 -208
91 0 181 57 209 133 15 40 14 141 -2 180 -47 112 -179 170 -298 132z"/>
<path d="M2980 6060 c-58 -4 -125 -13 -149 -20 -113 -31 -147 -148 -64 -221
35 -31 39 -31 102 -25 36 3 85 9 109 12 l42 7 0 -104 c1 -133 11 -177 50 -211
24 -22 40 -28 76 -28 52 0 98 21 115 51 11 22 31 267 23 281 -8 12 34 10 127
-7 101 -17 203 -51 284 -95 46 -24 68 -30 94 -26 104 16 143 125 73 207 -51
61 -230 130 -422 163 -109 19 -326 27 -460 16z"/>
</g>
</svg>
