<?xml version="1.0" encoding="utf-8"?>
<!-- Generator: Adobe Illustrator 16.0.0, SVG Export Plug-In . SVG Version: 6.00 Build 0)  -->
<!DOCTYPE svg PUBLIC "-//W3C//DTD SVG 1.1//EN" "http://www.w3.org/Graphics/SVG/1.1/DTD/svg11.dtd">
<svg version="1.1" id="圖層_1" xmlns="http://www.w3.org/2000/svg" xmlns:xlink="http://www.w3.org/1999/xlink" x="0px" y="0px"
	 width="1032px" height="1088px" viewBox="0 0 1032 1088" enable-background="new 0 0 1032 1088" xml:space="preserve">
<g>
	<path fill-rule="evenodd" clip-rule="evenodd" fill="#F4F4F4" d="M128.403,608.255c-9.633-0.684-18.934-1.06-28.169-2.051
		c-35.262-3.784-43.902-33.42-38.383-56.764c3.489-14.758,11.267-27.674,19.231-40.323c13.734-21.811,27.579-43.565,41.998-64.925
		c11.803-17.484,18.545-36.385,21.523-57.273c4.977-34.904,12.39-69.321,26.706-101.843c15.892-36.102,37.42-68.508,64.269-97.36
		c28.141-30.242,58.816-57.378,95.116-77.701c35.237-19.727,72.621-32.714,112.919-36.6c11.866-1.145,23.844-0.334,35.493-4.244
		c10.348-3.473,20.965-6.512,31.7-8.386c28.188-4.92,56.023-2.783,83.161,6.51c3.72,1.273,7.502,3.109,10.49,5.602
		c4.356,3.633,8.873,3.561,13.982,2.884c33.391-4.423,65.357,0.088,95.295,16.045c13.229,7.051,24.438,16.705,33.431,28.701
		c3.152,4.205,7.195,5.745,11.938,7.204c27.696,8.523,48.92,25.676,64.59,49.82c11.207,17.268,17.845,36.275,20.681,56.64
		c0.533,3.828,1.93,6.609,5.392,9.351c25.191,19.95,39.688,45.765,40.232,78.361c0.249,14.945-2.8,29.477-9.268,43.039
		c-1.829,3.835-1.586,6.651,0.772,9.946c12.683,17.718,15.184,38.007,12.369,58.663c-2.963,21.75-15.284,38.426-34.872,48.172
		c-9.753,4.852-13.527,10.966-14.925,21.417c-4.903,36.654-24.72,62.752-58.463,78.076c-2.993,1.359-6.214,2.417-9.439,3.014
		c-4.011,0.743-5.991,2.761-6.608,6.784c-4.648,30.296-16.131,57.765-34.394,82.392c-0.18,0.24-0.185,0.611-0.542,1.891
		c10.932,0.262,21.653,1.145,32.309,0.635c19.842-0.945,39.353-4.293,54.806-18.059c11.282-10.053,21.626-21.189,32.028-32.182
		c5.355-5.66,9.672-12.294,14.936-18.051c3.532-3.864,3.698-7.813,3.442-12.707c-0.492-9.392-0.939-18.981,0.388-28.232
		c3.273-22.821,26.006-41.687,53.124-40.957c25.68,0.691,45.816,20.405,49.024,40.066c4.077,24.991-0.429,43.748-22.134,59.313
		c-13.433,9.635-29.147,10.352-44.962,6.303c-9.856-2.523-6.906-2.787-12.877,4.422c-17.547,21.184-35.836,41.736-57.457,58.857
		c-12.762,10.104-28.028,15.879-44.24,16.264c-25.944,0.617-51.926-0.305-77.892-0.568c-2.329-0.023-4.658-0.004-7.962-0.004
		c1.018,16.102,2.037,32.238,3.053,48.316c9.09,0,17.546,0.145,25.994-0.023c38.641-0.775,77.276-1.734,115.919-2.332
		c4.224-0.066,5.593-1.688,6.823-5.197c11.23-32.039,47.639-45.174,76.749-27.689c19.9,11.955,27.815,30.406,26.447,52.736
		c-1.3,21.205-11.581,37.438-31.285,46.338c-25.605,11.566-57.211,2.543-69.63-24.184c-1.152-2.48-2.469-3.338-5.235-3.293
		c-42.477,0.697-84.954,1.453-127.435,1.75c-12.207,0.086-24.625,1.029-36.363-4.311c-9.445-4.297-16.213-10.756-17.655-21.182
		c-1.683-12.164-2.486-24.451-3.659-36.686c-0.156-1.625-0.243-3.258-0.379-5.113c-8.527,3.184-16.684,6.234-24.847,9.268
		c-1.242,0.463-2.498,0.908-3.775,1.256c-11.676,3.174-11.827,3.172-11.429,14.979c0.493,14.648,1.312,29.283,1.905,43.928
		c0.513,12.648,7.703,21.271,17.13,28.471c18.861,14.406,40.535,22.725,63.339,28.154c3.943,0.939,9.063-0.201,12.859-2.014
		c14.242-6.803,29.055-8.877,44.22-5.35c23.672,5.504,41.119,32.256,37.929,56.387c-1.896,14.346-6.911,27.076-17.896,36.8
		c-16.336,14.457-35.408,17.27-55.526,10.582c-19.66-6.533-29.863-21.833-33.958-41.515c-1.079-5.193-1.557-10.539-1.897-15.842
		c-0.183-2.83-1.252-3.92-3.911-4.734c-22.646-6.936-44.518-15.658-64.042-29.381c-13.612-9.568-25.747-20.545-32.824-36.105
		c-4.346-9.555-3.861-19.828-4.275-29.896c-0.637-15.475-0.71-30.975-1.017-46.463c-0.022-1.131-0.003-2.262-0.003-3.813
		c-16.484-0.266-32.088-3.42-47.099-8.92c-60.036-22-100.43-63.18-118.174-124.829c-7.758-26.956-8.502-54.856-1.206-82.388
		c1.411-5.326,0.285-8.225-4.484-11.139c-18.381-11.229-34.531-24.941-45.147-44.143c-7.369-13.326-12.349-27.005-12.202-42.915
		c0.578-62.486,0.034-124.982,0.334-187.472c0.125-25.999,1.873-51.914,10.862-76.729c5.238-14.46,11.77-28.219,21.633-40.192
		c0.926-1.124,1.683-2.387,1.978-4.818c-4.337,1.469-8.778,2.688-12.995,4.446c-33.938,14.152-64.334,33.86-91.535,58.566
		c-25.735,23.374-49.019,48.82-67.568,78.414c-21.065,33.608-33.505,70.35-40.521,109.15c-3.074,17.001-5.675,34.125-9.669,50.913
		c-4.715,19.814-17.038,35.895-28.202,52.438c-14.322,21.223-28.827,42.326-42.781,63.787c-3.549,5.459-5.961,11.896-7.732,18.21
		c-2.052,7.313,2.144,12.985,9.758,13.71c10.265,0.979,20.596,1.246,30.892,1.916c3.98,0.26,7.993,0.515,11.903,1.241
		c11.836,2.2,17.839,9.729,17.714,23.382c-0.239,26.318-1.196,52.628-1.391,78.947c-0.17,22.975-0.44,45.992,0.701,68.924
		c1.039,20.863,13.828,33.938,32.604,41.283c16.622,6.504,34.212,7.08,51.706,6.189c42.342-2.156,83.016-11.447,120.175-32.428
		c12.335-6.965,23.133-16.684,34.479-25.344c4.134-3.156,7.921-6.291,13.577-6.598c8.501-0.463,14.633,3.117,18.507,10.215
		c3.613,6.621,2.104,13.357-1.985,19.309c-9.132,13.287-21.732,22.848-35.076,31.445c-15.871,10.229-33.361,17.025-51.036,23.373
		c-2.013,0.723-4.024,1.449-5.054,1.82c1.854,51.771,3.686,102.936,5.526,154.333c7.73-3.945,15.483-8.029,23.345-11.893
		c44.414-21.831,91.244-36.2,139.804-45.247c32.359-6.027,65.013-8.289,97.886-7.955c8.482,0.086,15.954,7.615,16.371,16.664
		c0.442,9.604-5.728,17.484-14.609,18.271c-19.235,1.703-38.494,3.136-57.725,4.888c-31.911,2.908-62.978,10.033-93.567,19.342
		c-40.27,12.252-77.979,30.141-113.854,52.037c-6.128,3.74-12.365,7.18-19.98,6.75c-8.52-0.48-14.949-5.336-15.487-13.865
		c-1.068-16.938-1.341-33.932-1.723-50.908c-0.795-35.31-1.357-70.622-2.23-105.927c-0.185-7.471-1.294-14.916-1.974-22.375
		c-0.378-4.146-2.34-5.512-6.627-4.752c-27.984,4.953-56.223,7.02-84.545,4.678c-29.316-2.424-54.857-13.277-73.083-37.529
		c-10.781-14.348-14.813-31.199-14.972-48.744c-0.283-31.314,0.243-62.637,0.388-93.957
		C128.454,634.683,128.403,621.55,128.403,608.255z M714.067,438.382c30.077,29.264,49.255,64.566,52.903,108.802
		c6.348-3.206,12.087-5.409,17.062-8.751c13.797-9.271,19.195-23.482,22.526-39.07c1.572-7.361,0.129-12.143-6.272-16.422
		c-7.952-5.317-10.365-13.156-7.76-20.756c2.444-7.129,9.42-11.671,18.501-11.667c6.49,0.003,12.98,0.59,19.47,0.574
		c6.389-0.016,11.783-2.104,16.181-7.301c8.918-10.541,10.205-22.558,7.232-35.223c-3.755-15.996-16.169-23.935-32.42-21.612
		c-4.268,0.61-8.582,1.294-12.871,1.269c-7.922-0.046-14.467-5.157-16.39-12.191c-2.104-7.7,0.653-14.917,7.688-19.314
		c9.128-5.706,19.26-6.889,29.751-6.084c9.714,0.745,14.08-1.749,18.44-10.271c3.133-6.123,3.663-12.624,3.827-19.359
		c0.58-23.792-15.261-41.096-32.304-46.742c-12.503-4.142-25.475-4.528-38.511-3.525c-8.09,0.623-15.732,2.638-22.448,7.413
		c-8.116,5.771-8.883,15.42-1.584,22.157c2.168,2,4.872,3.429,7.372,5.057c3.194,2.082,6.723,3.761,9.586,6.22
		c5.216,4.479,9.055,9.944,7.876,17.348c-1.647,10.356-11.263,16.428-22.862,14.964c-11.841-1.495-21.223-7.23-29.034-15.983
		c-15.317-17.164-18.76-37.053-11.045-58.086c7.328-19.976,23.691-29.858,44.194-32.564c11.027-1.455,22.247-1.453,33.38-2.113
		c1.907-0.113,3.813-0.25,6.179-0.407c-0.366-3.793-0.315-6.997-1.026-10.021c-5.836-24.842-20.438-42.859-42.988-54.548
		c-6.17-3.198-6.324-3.176-9.386,2.895c-6.301,12.495-15.065,22.805-27.28,29.711c-15.784,8.924-32.417,11.918-49.701,4.588
		c-7.495-3.179-10.591-10.187-8.951-18.059c1.529-7.339,9.849-15.202,16.546-15.104c5.3,0.078,10.589,0.846,15.887,1.271
		c10.64,0.854,17.678-4.847,18.888-15.362c1.225-10.647-2.633-19.509-10.8-25.98c-18.647-14.775-39.83-21.645-63.897-21.242
		c-17.151,0.288-28.092,8.411-33.315,23.443c-4.433,12.757-6.399,26.377-9.346,39.64c-1.185,5.335-2.767,10.236-8.044,13.08
		c-13.232,7.129-28.055-0.923-27.669-16.008c0.308-12.035,1.923-24.198,4.498-35.967c2.376-10.865,6.801-21.282,10.353-31.985
		c-12.012-4.632-25.002-5.304-37.97-5.325c-28.282-0.045-54.857,6.888-79.761,20.368c-17.34,9.386-30.672,22.509-39.527,40.256
		c-7.525,15.082-11.038,31.26-13.863,47.655c-0.849,4.924-1.126,9.947-1.72,15.431c19.95-4.757,34.418-15.799,46.04-30.686
		c13.426-17.197,29.297-28.904,52.517-26.573c10.777,1.082,21.046,3.281,29.016,11.357c6.313,6.397,7.883,15.065,4.113,21.908
		c-3.83,6.954-10.943,9.554-20.356,7.426c-0.81-0.183-1.613-0.418-2.396-0.695c-14.757-5.224-26.074-0.065-35.928,11.146
		c-6.904,7.856-14.18,15.507-22.073,22.344c-11.899,10.308-26.407,15.618-41.504,19.543c-8.812,2.291-7.354,0.015-7.536,9.685
		c-0.272,14.495-0.232,28.995-0.303,43.492c-0.008,1.61,0.137,3.22,0.202,4.634c9.373,0,18.375,0.546,27.286-0.117
		c17.077-1.27,31.805-7.647,42.969-21.313c3.111-3.809,6.968-7.222,11.051-9.972c6.188-4.167,13.914-3.325,20.027,1.302
		c6.205,4.696,8.288,10.225,5.809,18.053c-1.275,4.026-3.271,8.11-5.925,11.367c-19.204,23.573-44.632,35.502-74.443,38.778
		c-8.722,0.958-17.496,1.44-26.281,2.144c-0.203,1.079-0.417,1.715-0.43,2.356c-0.447,22.315-1.037,44.629-1.188,66.946
		c-0.035,5.217,0.543,10.776,2.355,15.609c6.93,18.482,19.987,32.214,35.451,43.85c0.474-0.312,0.833-0.43,0.996-0.677
		c1.007-1.528,2.027-3.052,2.937-4.638c10.009-17.461,22.172-33.151,37.553-46.268c14.814-12.633,31.057-22.929,49.455-29.38
		c38.17-13.384,76.798-12.613,115.392-2.197c12.234,3.302,24.021,8.263,36.437,12.614c1.005-1.975,2.098-4.588,3.585-6.953
		c3.611-5.739,6.824-11.878,11.274-16.902c5.525-6.24,14.305-6.732,21.993-2.546c6.98,3.8,10.839,10.925,9.248,18.242
		c-0.907,4.176-2.177,8.481-4.299,12.139C722.984,425.913,718.483,431.874,714.067,438.382z M731.217,567.914
		c0-4.495,0.507-9.058-0.078-13.476c-5.822-43.978-25.384-79.366-64.71-102.108c-28.964-16.75-60.347-21.6-92.974-16.456
		c-38.932,6.137-68.635,27.762-91.07,59.331c-25.662,36.109-31.802,75.581-15.922,117.305
		c12.439,32.681,34.296,58.015,64.949,75.013c39.773,22.053,81.234,25.402,122.431,5.291
		C705.315,667.687,729.964,624.665,731.217,567.914z M752.612,918.511c9.413,0.68,17.772-6.918,18.507-16.822
		c0.689-9.299-7.316-18.207-16.854-18.752c-9.492-0.545-17.91,7.381-18.647,17.557C734.941,909.808,742.459,917.778,752.612,918.511
		z M907.479,790.151c11.908-0.014,18.767-6.453,18.851-17.695c0.074-10-7.776-18.23-17.271-18.107
		c-8.71,0.113-17.689,9.109-17.65,17.787C891.444,780.407,900.436,791.437,907.479,790.151z M941.354,580.459
		c-0.076-10.423-6.926-17.585-16.821-17.586c-9.818-0.001-17.321,8.171-17.146,18.676c0.162,9.781,8.302,17.636,18.041,17.411
		C934.993,598.741,941.434,591.258,941.354,580.459z"/>
	<path fill-rule="evenodd" clip-rule="evenodd" fill="#F4F4F4" d="M607.5,368.593c-9.586-0.356-18.943-1.494-27.283-6.672
		c-7.368-4.575-10.256-12.561-7.661-20.699c2.304-7.225,9.651-12.428,17.722-11.866c5.275,0.367,10.495,1.584,15.729,2.479
		c14.187,2.426,25.587-5.321,27.351-18.619c2.214-16.697-6.487-29.632-21.101-31.058c-5.786-0.564-11.62-0.664-17.436-0.888
		c-9.55-0.369-16.383-5.729-17.991-14.206c-1.543-8.125,2.663-15.996,11.371-19.437c16.183-6.394,32.374-4.417,47.294,3.318
		c34.072,17.664,44.938,62.271,22.935,93.794C646.256,362.182,628.441,369.118,607.5,368.593z"/>
	<path fill-rule="evenodd" clip-rule="evenodd" fill="#F4F4F4" d="M596.058,660.694c-39.824,2.066-77.065-29.891-87.122-67.918
		c-10.106-38.214,6.08-77.311,36.842-99.126c16.81-11.92,36.121-16.551,56.688-15.276c24.414,1.513,44.715,11.608,60.873,29.978
		c5.306,6.031,6.586,12.345,3.106,20.157c-4.177,9.38-16.542,11.635-23.258,7.702c-3.984-2.333-7.731-5.138-11.336-8.041
		c-31.493-25.373-80.063-6.682-86.629,33.264c-3.328,20.25,1.984,36.604,18.489,49.859c15.389,12.359,48.392,14.505,65.21-3.155
		c4.079-4.283,8.756-8.355,13.89-11.209c12.41-6.898,24.84-1.253,29.261,14.252c0.597,2.095-0.422,4.969-1.421,7.147
		c-6.414,13.99-17.509,23.668-30.233,31.594C627.551,657.933,615.533,660.638,596.058,660.694z"/>
</g>
</svg>
